<?xml version="1.0" standalone="no"?>
<!DOCTYPE svg PUBLIC "-//W3C//DTD SVG 20010904//EN" "http://www.w3.org/TR/2001/REC-SVG-20010904/DTD/svg10.dtd">
<!-- Created using Krita: https://krita.org -->
<svg xmlns="http://www.w3.org/2000/svg" 
    xmlns:xlink="http://www.w3.org/1999/xlink"
    xmlns:krita="http://krita.org/namespaces/svg/krita"
    xmlns:sodipodi="http://sodipodi.sourceforge.net/DTD/sodipodi-0.dtd"
    width="259.2pt"
    height="259.2pt"
    viewBox="0 0 259.2 259.2">
<defs/>
<path id="shape1" transform="matrix(0.998377138222513 -0.0761343323422058 0.0761558376951008 0.995818001114482 60.0292751053818 59.7412681786306)" fill="#ffffff" fill-rule="evenodd" stroke="#6a6362" stroke-width="4.8" stroke-linecap="square" stroke-linejoin="bevel" d="M61.6982 0C26.3049 0 1.23273 25.5851 0 49.602C4.94836 71.2377 35.9934 91.1088 82.5234 87.0202C102.051 83.74 116.957 76.597 128.37 61.0398C136.61 38.0269 110.324 0.0598228 64.6995 0.112841" sodipodi:nodetypes="ccccc"/><path id="shape2" transform="translate(66.5648318164856, 39.5533616017197)" fill="#ffffff" fill-rule="evenodd" stroke="#6a6362" stroke-width="4.8" stroke-linecap="square" stroke-linejoin="bevel" d="M44.6762 15.6188C43.4762 11.0295 28.1777 4.09882 24.0362 1.93882C2.36832 -8.62118 -2.09556 26.3863 0.784443 48.2588" sodipodi:nodetypes="ccc"/><path id="shape3" transform="matrix(1 -1.38777878078145e-17 -0.0168067219433221 1 146.215405774491 37.6353516106199)" fill="#ffffff" fill-rule="evenodd" stroke="#6a6362" stroke-width="4.8" stroke-linecap="square" stroke-linejoin="bevel" d="M0 17.0515C4.06674 10.9979 17.1668 2.52754 25.729 0.161019C43.1133 -2.93479 50.8938 39.5075 46.4409 50.2591" sodipodi:nodetypes="ccc"/><ellipse id="shape4" transform="matrix(0.99676085861347 0.0653891926518028 -0.0821599454638213 0.997859836592467 97.6344114456077 85.6327900597957)" rx="2.04" ry="8.76" cx="2.04" cy="8.76" fill="none" stroke="#6a6362" stroke-width="4.8" stroke-linecap="square" stroke-linejoin="bevel"/><ellipse id="shape01" transform="matrix(0.99676085861347 0.0653891926518028 -0.0821599454638213 0.997859836592467 155.611051892157 87.8497215461666)" rx="2.04" ry="8.76" cx="2.04" cy="8.76" fill="none" stroke="#6a6362" stroke-width="4.8" stroke-linecap="square" stroke-linejoin="bevel"/><path id="shape5" transform="matrix(0.99676085861347 0.0653891926518028 -0.0821599454638213 0.997859836592467 122.1576223942 101.76880347796)" fill="#6a6362" fill-rule="evenodd" stroke="#6a6362" stroke-width="3.6" stroke-linecap="square" stroke-linejoin="bevel" d="M0.378695 0.800984C2.61734 0.0291427 5.6004 -0.509719 7.73027 0.760058C8.47853 3.78093 6.35772 5.59554 4.63806 6.83762C2.00446 6.67213 -1.08948 1.45514 0.378695 0.800984" sodipodi:nodetypes="cccc"/><path id="shape6" transform="matrix(0.99676085861347 0.0653891926518028 -0.0821599454638213 0.997859836592467 115.284478920966 109.953937580398)" fill="none" stroke="#6a6362" stroke-width="3.6" stroke-linecap="square" stroke-linejoin="bevel" d="M10.5954 0.770779C9.72978 4.04996 0.138894 5.74237 0 0" sodipodi:nodetypes="cc"/><path id="shape7" transform="matrix(0.99676085861347 0.0653891926518028 -0.0821599454638213 0.997859836592467 126.608547553454 110.050765119127)" fill="none" stroke="#6a6362" stroke-width="3.6" stroke-linecap="square" stroke-linejoin="bevel" d="M0 0C0.317498 6.17598 10.8253 6.11091 11.0804 0.0204632" sodipodi:nodetypes="cc"/>
</svg>
