<?xml version="1.0" standalone="no"?>
<!DOCTYPE svg PUBLIC "-//W3C//DTD SVG 20010904//EN" "http://www.w3.org/TR/2001/REC-SVG-20010904/DTD/svg10.dtd">
<!-- Created using Krita: https://krita.org -->
<svg xmlns="http://www.w3.org/2000/svg" 
    xmlns:xlink="http://www.w3.org/1999/xlink"
    xmlns:krita="http://krita.org/namespaces/svg/krita"
    xmlns:sodipodi="http://sodipodi.sourceforge.net/DTD/sodipodi-0.dtd"
    width="259.2pt"
    height="259.2pt"
    viewBox="0 0 259.2 259.2">
<defs/>
<path id="shape0" transform="matrix(-1 0 0 1 186.058684855286 121.251142746881)" fill="#ffffff" stroke="#6a6362" stroke-width="4.8" stroke-linecap="square" stroke-linejoin="bevel" d="M32.5585 0C24.9002 3.7519 -9.16038 40.7484 2.35449 51.6081C7.44982 62.0334 30.2353 43.2685 34.2587 32.9457" sodipodi:nodetypes="ccc"/><path id="shape1" transform="translate(59.0526150618372, 124.669640346048)" fill="#ffffff" fill-rule="evenodd" stroke="#6a6362" stroke-width="4.8" stroke-linecap="square" stroke-linejoin="bevel" d="M33.9733 0C25.9822 3.7519 -9.55844 40.7484 2.45681 51.6081C7.77355 62.0334 31.5492 43.2685 35.7474 32.9457" sodipodi:nodetypes="ccc"/><path id="shape2" transform="translate(73.5402072401849, 126.139450793729)" fill="#ffffff" fill-rule="evenodd" stroke="#6a6362" stroke-width="4.8" stroke-linecap="square" stroke-linejoin="bevel" d="M23.0611 2.57836C5.47553 17.6849 -6.09492 96.869 3.41642 99.6147C31.5925 104.851 72.1663 106.314 99.6387 96.7498C104.911 84.8878 94.4527 14.1605 75.9015 0" sodipodi:nodetypes="cccc"/><path id="shape3" transform="translate(74.0614728079674, 220.508712906187)" fill="#ffffff" fill-rule="evenodd" stroke="#6a6362" stroke-width="4.8" stroke-linecap="square" stroke-linejoin="bevel" d="M0 0C0.164005 2.52553 6.70329 24.4839 18.7585 27.5912C38.6872 27.8532 50.6182 5.78425 50.0413 7.24396" sodipodi:nodetypes="ccc"/><path id="shape4" transform="translate(124.199994488961, 219.826607469606)" fill="#ffffff" fill-rule="evenodd" stroke="#6a6362" stroke-width="4.8" stroke-linecap="square" stroke-linejoin="bevel" d="M0 7.72825C0.0420191 7.21952 33.6638 57.1865 49.5398 0" sodipodi:nodetypes="cc"/><path id="shape5" transform="matrix(0.997859836592467 -0.0653891926518028 0.0821599454638213 0.99676085861347 4.74345381109744 -56.3665331044348)" fill="none" stroke="#000000" stroke-width="4.6992" stroke-linecap="square" stroke-linejoin="bevel" d="M0.181963 0.245558C-0.0089952 0.0307301 6.81205e-05 0.132189 6.81205e-05 0" sodipodi:nodetypes="cc"/><path id="shape6" transform="matrix(0.989985255411214 -0.141170797505768 0.157809204421453 0.987612637071015 50.108094676332 51.0513124996154)" fill="#ffffff" fill-rule="evenodd" stroke="#6a6362" stroke-width="4.8" stroke-linecap="square" stroke-linejoin="bevel" d="M61.6982 0C26.3049 0 1.23273 25.5851 0 49.602C4.94836 71.2377 35.9934 91.1088 82.5234 87.0202C102.051 83.74 116.957 76.597 128.37 61.0398C136.61 38.0269 110.324 0.0598228 64.6995 0.112841" sodipodi:nodetypes="ccccc"/><path id="shape7" transform="matrix(0.997859836592467 -0.0653891926518028 0.0821599454638213 0.99676085861347 54.971027669655 30.5014432126054)" fill="#ffffff" fill-rule="evenodd" stroke="#6a6362" stroke-width="4.8" stroke-linecap="square" stroke-linejoin="bevel" d="M44.6762 15.6188C43.4762 11.0295 28.1777 4.09882 24.0362 1.93882C2.36832 -8.62118 -2.09556 26.3863 0.784442 48.2588" sodipodi:nodetypes="ccc"/><path id="shape8" transform="matrix(0.997859836592467 -0.0653891926518028 0.0653891926518028 0.997859836592467 134.293552026191 23.3813583668129)" fill="#ffffff" fill-rule="evenodd" stroke="#6a6362" stroke-width="4.8" stroke-linecap="square" stroke-linejoin="bevel" d="M0 17.0515C4.06674 10.9979 17.1668 2.52754 25.729 0.161019C43.1133 -2.93479 50.8938 39.5075 46.4409 50.2591" sodipodi:nodetypes="ccc"/><ellipse id="shape9" transform="translate(89.7599959055592, 74.3999985758467)" rx="2.04" ry="8.76" cx="2.04" cy="8.76" fill="none" stroke="#6a6362" stroke-width="4.8" stroke-linecap="square" stroke-linejoin="bevel"/><ellipse id="shape01" transform="translate(147.79469983775, 72.8187033962253)" rx="2.04" ry="8.76" cx="2.04" cy="8.76" fill="none" stroke="#6a6362" stroke-width="4.8" stroke-linecap="square" stroke-linejoin="bevel"/><path id="shape10" transform="translate(115.556456939201, 88.8801919781325)" fill="#6a6362" fill-rule="evenodd" stroke="#6a6362" stroke-width="3.6" stroke-linecap="square" stroke-linejoin="bevel" d="M0.378695 0.800984C2.61734 0.0291429 5.6004 -0.509719 7.73027 0.760058C8.47853 3.78093 6.35772 5.59554 4.63806 6.83762C2.00446 6.67213 -1.08948 1.45514 0.378695 0.800984" sodipodi:nodetypes="cccc"/><path id="shape11" transform="translate(109.370513506276, 97.4882427984836)" fill="none" stroke="#6a6362" stroke-width="3.6" stroke-linecap="square" stroke-linejoin="bevel" d="M10.5954 0.770779C9.72978 4.04996 0.138894 5.74237 0 0" sodipodi:nodetypes="cc"/><path id="shape12" transform="translate(120.678302126754, 96.8442849937124)" fill="none" stroke="#6a6362" stroke-width="3.6" stroke-linecap="square" stroke-linejoin="bevel" d="M0 0C0.317498 6.17598 10.8253 6.11091 11.0804 0.0204632" sodipodi:nodetypes="cc"/>
</svg>
